<svg width="553" height="447" viewBox="0 0 553 447" fill="none" xmlns="http://www.w3.org/2000/svg">
<path d="M98.1613 417.016C94.8991 415.787 91.6528 414.505 88.4211 413.175C61.5114 402.091 37.6737 378.997 22.3059 348.214C3.72249 310.987 -3.97863 264.422 3.00908 220.779C3.08295 220.323 3.15775 219.867 3.23322 219.412C1.09684 206.391 -9.77098 134.001 25.7342 68.9313C58.4158 9.03702 127.386 -28.3036 174.611 27.1315C194.661 50.6672 199.641 80.6777 201.028 91.6088C207.235 79.9051 223.907 51.981 253.746 38.5108C305.763 15.0297 351.239 56.4829 355.891 60.8757C356.977 56.2868 361.286 40.0532 374.064 29.9863C393.3 14.8306 414.055 27.5724 415.578 28.5486C415.99 28.8125 427.16 18.3489 428.772 17.2799C434.361 13.5772 440.321 10.8153 446.455 9.10779C470.673 2.36603 498.589 14.4679 513.416 41.2166C520.385 53.7903 523.561 69.8898 520.683 85.0838C517.438 102.22 507.875 115.973 503.467 132.546C499.345 148.047 499.418 164.783 503.144 180.397C504.972 188.062 508.231 202.274 513.499 207.366C520.968 214.588 542.538 237.431 550.269 277.563C561.85 337.677 535.603 402.215 490.455 416.225C414.675 439.741 318.976 443.686 267.629 443.886C210.793 444.107 152.917 437.68 98.1613 417.016Z" fill="#9DE1E6"/>
<path d="M268.234 282.141C268.234 282.141 338.609 207.412 424.273 244.358L413.935 272.682C413.935 272.682 315.502 275.188 299.696 307.526L268.234 282.141Z" fill="#49A77A"/>
<path d="M414.266 271.006C418.714 271.216 423.149 271.803 427.52 272.765C430.381 273.394 433.328 274.183 436.175 273.476C439.023 272.768 441.733 270.013 441.564 266.703C443.398 265.696 443.851 262.458 442.383 260.852C443.76 260.535 444.369 258.497 443.896 256.99C443.421 255.486 442.23 254.442 441.059 253.559C435.788 249.583 429.681 247.051 423.398 246.236L414.266 271.006Z" fill="#F9A98C"/>
<path d="M462.841 117.784C461.48 116.476 460.038 115.301 458.538 114.282C449.531 108.164 438.51 107.884 429.273 113.506C414.37 122.58 405.535 148.942 416.523 166.01C425.251 179.566 441.436 182.304 454.654 178.919C470.899 174.756 477.848 152.845 473.008 135.031C471.173 128.274 467.481 122.249 462.841 117.784Z" fill="#EC8D62"/>
<path d="M452.619 141.214C452.526 142.655 453.118 143.888 453.942 143.965C454.769 144.041 455.511 142.935 455.604 141.493C455.698 140.051 455.104 138.82 454.28 138.743C453.456 138.665 452.712 139.772 452.619 141.214Z" fill="#100F0D"/>
<path d="M430.615 138.366C430.523 139.808 431.115 141.039 431.939 141.117C432.763 141.194 433.508 140.087 433.6 138.644C433.695 137.202 433.101 135.971 432.277 135.894C431.452 135.818 430.708 136.924 430.615 138.366Z" fill="#100F0D"/>
<path d="M441.602 147.195C441.34 147.195 441.096 147.033 441.021 146.651C440.722 145.104 441.08 143.344 441.264 141.779C441.474 139.979 441.888 138.404 442.733 136.841C442.85 136.624 443.033 136.531 443.215 136.531C443.566 136.531 443.916 136.873 443.802 137.339C443.392 139.023 443.001 140.582 442.869 142.332C442.762 143.739 442.848 145.34 442.352 146.651C442.227 146.983 441.903 147.195 441.602 147.195Z" fill="#E0542E"/>
<path d="M448.08 151.188C446.352 152.937 443.945 153.599 441.627 153.285C438.935 152.922 438.027 151.351 436.575 149.089C436.267 148.613 435.522 148.743 435.527 149.403C435.593 156.504 446.083 156.593 449.076 152.039C449.516 151.368 448.587 150.673 448.08 151.188Z" fill="#100F0D"/>
<path d="M460.296 158.434C457.853 158.434 455.73 156.255 455.406 153.263C455.052 150.01 456.958 147.027 459.662 146.602C459.88 146.568 460.095 146.55 460.309 146.55C462.753 146.55 464.876 148.73 465.2 151.723C465.554 154.976 463.647 157.959 460.943 158.384C460.726 158.418 460.51 158.435 460.296 158.434Z" fill="#E25B36"/>
<path d="M424.56 154.324C422.116 154.324 419.993 152.144 419.667 149.152C419.314 145.9 421.222 142.916 423.926 142.492C424.143 142.458 424.359 142.44 424.572 142.44C427.015 142.44 429.138 144.62 429.464 147.613C429.817 150.866 427.911 153.849 425.207 154.274C424.988 154.308 424.773 154.324 424.56 154.324Z" fill="#E25B36"/>
<path d="M473.916 125.799C471.546 115.114 468.211 104.339 461.812 96.3958C458.447 92.2184 452.008 85.366 446.782 88.8298C442.86 91.4309 445.966 99.1415 448.162 101.93C444.513 97.2953 439.88 93.6457 434.694 92.0959C430.533 90.8529 424.29 92.2641 426.154 99.2727C426.882 102.007 428.884 104.039 431.09 105.133C427.157 101.954 422.44 100.197 417.701 100.146C415.537 100.122 413.326 100.461 411.379 101.601C407.293 103.993 404.996 109.866 405.61 115.279C406.224 120.692 409.473 125.418 413.592 127.719C417.713 130.019 422.571 130.032 426.893 128.351C425.4 128.932 424.94 131.445 425.707 133.094C426.474 134.741 428.039 135.612 429.57 136.031C434.21 137.298 439.068 135.319 443.19 132.462C446.769 129.985 450.055 126.785 452.445 122.736C451.516 126.445 452.986 130.814 455.797 132.703C458.608 134.593 462.473 133.807 464.611 130.913C464.034 133.683 464.157 136.793 465.477 139.169C466.798 141.544 469.493 142.898 471.677 141.774C471.344 143.423 471.017 145.182 471.481 146.785C471.863 148.103 473.614 149.944 474.73 148.736C475.782 147.602 475.763 143.001 475.815 141.419C475.989 136.131 475.043 130.879 473.916 125.799Z" fill="#4F1C19"/>
<path d="M480.728 151.897C480.35 155.259 477.777 157.614 474.981 157.158C472.184 156.703 470.226 153.608 470.606 150.244C470.985 146.882 473.559 144.527 476.353 144.983C479.149 145.439 481.107 148.534 480.728 151.897Z" fill="#EC8D62"/>
<path d="M472.507 154.12C472.316 154.12 472.132 154.004 472.079 153.754C471.808 152.504 472.985 150.931 473.702 150.053C474.501 149.077 475.656 148.045 476.89 147.962C476.895 147.961 476.902 147.961 476.909 147.961C477.208 147.961 477.397 148.447 477.154 148.67C476.532 149.238 475.845 149.665 475.23 150.224C475.119 150.084 475.008 149.956 474.904 149.844C474.828 149.761 474.746 149.726 474.667 149.726C474.412 149.726 474.204 150.099 474.414 150.388C474.509 150.518 474.598 150.65 474.683 150.789C474.663 150.811 474.645 150.835 474.625 150.858C474.223 151.357 473.878 151.911 473.6 152.505C473.355 153.027 473.273 153.6 472.853 153.982C472.755 154.073 472.63 154.12 472.507 154.12Z" fill="#E0542E"/>
<path d="M476.157 154.263C476.015 154.263 475.864 154.18 475.787 154.053C475.482 153.559 475.515 152.862 475.35 152.294C475.195 151.759 474.967 151.252 474.684 150.789C474.857 150.582 475.04 150.396 475.231 150.224C476.024 151.222 476.914 152.868 476.454 154.053C476.395 154.202 476.279 154.263 476.157 154.263Z" fill="#E0542E"/>
<path d="M474.68 150.79C474.594 150.651 474.505 150.518 474.411 150.388C474.2 150.099 474.408 149.726 474.664 149.726C474.742 149.726 474.825 149.762 474.901 149.844C475.004 149.956 475.115 150.085 475.227 150.225C475.036 150.397 474.853 150.583 474.68 150.79Z" fill="#D23722"/>
<path d="M392.195 346.811C392.195 346.811 367.871 386.522 360.004 442.526C360.004 442.526 477.011 440.805 499.339 404.82C499.339 404.82 491.409 373.303 476.732 356.924C476.732 356.924 431.538 370.671 392.195 346.811Z" fill="#E54850"/>
<path d="M425.49 434.131L428.293 382.511L415.113 436.727C415.113 436.727 422.933 437.58 425.49 434.131Z" fill="#B73943"/>
<path d="M392.198 346.81L390.35 235.232C390.074 218.529 398.496 203.309 411.495 197.421L411.817 197.275C429.974 189.197 456.019 192.348 472.917 203.564C476.415 205.886 479.553 208.55 482.343 211.351C494.282 223.34 499.395 242.538 495.686 260.705C488.779 294.55 476.734 356.923 476.734 356.923C476.734 356.923 438.275 372.362 392.198 346.81Z" fill="#3A6BA2"/>
<path d="M440.655 226.253C439.854 226.253 439.042 226.185 438.223 226.045C429.586 224.565 423.451 215.194 423.391 205.832C423.388 205.464 423.62 205.287 423.862 205.287C424.112 205.287 424.374 205.473 424.41 205.832C425.225 214.051 430.034 222.437 437.764 224.191C438.67 224.396 439.572 224.495 440.462 224.495C447.187 224.495 453.274 218.914 455.609 212.028C455.771 211.55 456.145 211.344 456.514 211.344C457.078 211.344 457.629 211.83 457.374 212.567C454.705 220.296 448.167 226.253 440.655 226.253Z" fill="#1D2F57"/>
<path d="M467.262 200.28C467.262 200.28 525.539 217.18 534.639 272.152L491.96 279.192C491.96 279.192 486.727 220.353 467.262 200.28Z" fill="#3A6BA2"/>
<path d="M503.987 277.208C503.987 277.208 521.033 333.078 485.052 402.489C485.052 402.489 480.769 408.371 487.357 410.55C487.357 410.55 484.674 418.184 491.811 415.816C491.811 415.816 493.122 424.556 499.371 418.43C499.371 418.43 550.887 381.685 530.294 272.869L503.987 277.208Z" fill="#EC8D62"/>
<path d="M430.837 177.761L428.02 202.742C429.259 209.267 433.64 214.26 439.055 215.337C444.745 216.47 450.488 213.061 453.271 206.86C454.657 197.241 456.043 187.621 457.43 178.001L430.837 177.761Z" fill="#EC8D62"/>
<path d="M455.738 189.718C456.3 185.812 456.863 181.908 457.426 178.002L455.738 189.716C455.738 189.716 455.738 189.716 455.738 189.718Z" fill="#738072"/>
<path d="M454.443 189.755C450.347 189.755 437.538 188.83 430.832 177.761C430.832 177.761 435.912 180.4 443.984 180.4C447.853 180.4 452.409 179.794 457.425 178.001C457.424 178.001 457.424 178.003 457.424 178.003C456.861 181.909 456.298 185.812 455.736 189.718C455.715 189.719 455.246 189.755 454.443 189.755Z" fill="#E25B36"/>
<path d="M373.184 186.073C373.184 186.073 324.841 173.391 295.452 99.6271C295.452 99.6271 293.625 92.1216 288.56 97.6394C288.56 97.6394 284.643 90.8195 282.475 99.3352C282.475 99.3352 275.642 95.9732 276.586 105.604C276.586 105.604 274.718 177.607 362.11 215.101L373.184 186.073Z" fill="#EC8D62"/>
<path d="M422.402 193.968C422.402 193.968 396.05 184.4 375.146 166.636C375.146 166.636 357.614 205.747 358.392 235.492L390.657 253.762C390.657 253.762 396.202 212.998 422.402 193.968Z" fill="#3A6BA2"/>
<path d="M318.818 253.223C318.818 253.223 293.567 262.632 276.027 257.758C276.027 257.758 280.12 289.036 267.957 306.699C267.957 306.699 291.912 317.322 320.168 308.054L318.818 253.223Z" fill="#F3C02D"/>
<path d="M277.254 305.945C280.358 299.301 281.817 291.744 283.26 284.483C284.71 277.182 285.639 269.678 284.533 262.239C284.4 261.339 282.983 261.538 283.083 262.456C284.636 276.722 280.992 292.251 276.362 305.528C276.163 306.102 277.003 306.486 277.254 305.945Z" fill="#E4A412"/>
<path d="M269.032 303.32C269.032 303.32 181.401 264.995 145.934 231.932C145.934 231.932 141.474 229.642 145.004 225.884C145.004 225.884 142.808 219.865 149.011 219.419C149.011 219.419 147.738 215.057 153.519 215.501C153.519 215.501 243.083 271.596 276.548 264.302C276.548 264.302 278.45 290.928 269.032 303.32Z" fill="#EC8D62"/>
<path d="M221.906 255.76C207.024 256.671 195.197 270.858 194.623 288.525C194.128 303.822 192.596 321.067 189.277 339.67C181.851 381.289 168.424 413.224 157.84 434.017C207.362 438.035 256.884 442.055 306.408 446.074C301.274 418.433 306.295 309.822 307.913 296.88C310.249 278.197 293.349 261.491 277.59 258.793C268.541 257.243 258.744 256.09 248.282 255.586C238.957 255.137 230.141 255.254 221.906 255.76Z" fill="#49A77A"/>
<path d="M236.995 237.151L235.047 261.141C237.701 269.71 244.529 275.362 251.933 275.231C258.446 275.117 264.442 270.547 267.451 263.45C267.229 256.726 267.007 250.004 266.784 243.281C266.784 243.281 245.707 245.615 236.995 237.151Z" fill="#F9A98C"/>
<path d="M280.729 188.004C275.608 172.725 262.073 162.836 248.805 163.246C242.319 163.446 236.053 166.264 231.123 171.545C225.313 177.766 222.257 186.864 220.968 196.032C219.49 206.55 220.542 217.493 225.913 226.131C233.96 239.072 249.886 244.473 262.37 239.393C277.176 233.368 285.637 215.338 282.78 196.555C282.334 193.628 281.651 190.757 280.729 188.004Z" fill="#F9A98C"/>
<path d="M283.174 202.938C281.282 206.182 278.6 208.881 275.415 210.016C272.466 211.067 268.919 210.615 266.354 208.359C263.818 206.126 262.687 202.375 260.331 199.931C255.189 194.601 246.771 195.096 241.507 199.918C236.87 204.168 232.44 212.142 225.753 208.114C224.168 207.157 219.926 204.038 220.302 201.4C218.248 215.841 223.713 231.919 234.489 239.5C240.824 243.958 247.872 244.949 255.102 245.033C269.239 245.201 282.854 234.139 283.587 216.523C283.674 214.466 283.59 212.42 283.508 210.366C283.417 208.135 282.741 205.28 283.12 203.069L283.174 202.938Z" fill="#98583A"/>
<path d="M262.968 189.996C262.913 191.655 263.649 193.035 264.61 193.079C265.572 193.124 266.396 191.814 266.45 190.157C266.504 188.498 265.769 187.118 264.807 187.074C263.846 187.029 263.022 188.337 262.968 189.996Z" fill="#100F0D"/>
<path d="M237.276 187.908C237.222 189.567 237.958 190.947 238.919 190.992C239.881 191.036 240.704 189.728 240.758 188.069C240.813 186.41 240.077 185.03 239.116 184.986C238.155 184.941 237.331 186.249 237.276 187.908Z" fill="#100F0D"/>
<path d="M250.967 195.104C250.691 195.104 250.427 194.936 250.357 194.56C249.998 192.67 250.338 190.471 250.526 188.553C250.711 186.668 251.166 184.982 251.971 183.306C252.079 183.081 252.256 182.985 252.436 182.985C252.784 182.985 253.146 183.346 253.04 183.805C252.59 185.759 252.197 187.593 252.105 189.618C252.031 191.24 252.156 193.012 251.688 194.56C251.582 194.907 251.267 195.104 250.967 195.104Z" fill="#F3653F"/>
<path d="M258.157 201.723C256.317 203.763 253.659 204.696 251.066 204.616C247.744 204.513 246.302 202.71 244.543 199.957C244.255 199.507 243.437 199.595 243.495 200.271C244.187 208.245 255.785 207.902 259.153 202.574C259.573 201.911 258.655 201.17 258.157 201.723Z" fill="#100F0D"/>
<path d="M272.316 209.336C269.566 209.336 267.135 206.987 266.657 203.663C266.123 199.95 268.229 196.429 271.358 195.798C271.684 195.732 272.009 195.699 272.33 195.699C275.079 195.699 277.511 198.048 277.989 201.373C278.521 205.085 276.417 208.606 273.288 209.239C272.962 209.305 272.637 209.336 272.316 209.336Z" fill="#F46D49"/>
<path d="M230.613 206.536C227.862 206.536 225.431 204.186 224.953 200.862C224.421 197.15 226.525 193.629 229.655 192.996C229.981 192.93 230.305 192.899 230.626 192.899C233.376 192.899 235.808 195.248 236.284 198.572C236.818 202.283 234.714 205.806 231.584 206.437C231.258 206.504 230.934 206.536 230.613 206.536Z" fill="#F46D49"/>
<path d="M233.37 237.287C233.26 237.287 233.151 237.236 233.065 237.116C228.699 231.02 228.731 220.929 230.074 213.713C230.134 213.393 230.34 213.255 230.56 213.255C230.894 213.255 231.256 213.571 231.177 214.049C230.489 218.235 230.455 222.435 231.09 226.634C231.622 230.148 233.066 233.202 233.865 236.599C233.944 236.943 233.654 237.287 233.37 237.287Z" fill="#763924"/>
<path d="M241.75 242.163C241.614 242.163 241.473 242.101 241.396 241.98C238.87 238.04 238.569 231.764 238.475 227.046C238.356 221.115 239.015 215.175 239.927 209.339C239.964 209.099 240.144 208.99 240.331 208.99C240.568 208.99 240.816 209.165 240.795 209.47C240.405 215.112 239.754 220.746 239.855 226.416C239.909 229.494 240.148 232.589 240.724 235.604C241.122 237.689 241.846 239.661 242.094 241.771C242.126 242.036 241.943 242.163 241.75 242.163Z" fill="#763924"/>
<path d="M250.415 240.436C250.207 240.436 249.984 240.229 250.019 239.928C251.244 229.858 251.639 219.733 250.794 209.601C250.77 209.316 251 209.155 251.223 209.155C251.398 209.155 251.569 209.257 251.601 209.48C253.018 219.722 252.882 230.035 250.721 240.144C250.677 240.349 250.549 240.436 250.415 240.436Z" fill="#763924"/>
<path d="M260.002 242.733C259.846 242.733 259.687 242.615 259.691 242.407C259.763 237.364 260.316 232.309 260.401 227.25C260.486 222.174 260.144 217.123 260.136 212.054C260.135 211.805 260.336 211.659 260.526 211.659C260.675 211.659 260.816 211.749 260.851 211.948C262.467 221.511 262.425 233.03 260.284 242.496C260.247 242.659 260.125 242.733 260.002 242.733Z" fill="#763924"/>
<path d="M268.111 239.552C267.956 239.552 267.803 239.393 267.842 239.182C268.529 235.483 270.006 232.002 270.729 228.292C271.599 223.818 271.445 219.632 270.67 215.17C270.61 214.82 270.842 214.602 271.079 214.602C271.237 214.602 271.398 214.701 271.473 214.925C274.046 222.705 272.133 232.465 268.326 239.407C268.272 239.509 268.191 239.552 268.111 239.552Z" fill="#763924"/>
<path d="M283.995 208.602C286.157 200.715 287.38 192.466 287.617 184.176C287.811 177.307 287.158 169.887 283.367 164.689C279.475 159.356 273.257 157.608 267.825 154.737C264.695 153.084 261.738 150.984 258.961 148.606C256.067 146.129 253.311 143.274 251.503 139.624C249.875 136.339 249.095 132.576 248.334 128.873C242.633 133.228 240.188 142.705 242.858 150.098C240.311 146.629 237.717 142.923 236.11 138.735C234.367 140.736 233.386 143.638 233.481 146.515C233.576 149.39 234.747 152.192 236.619 154.025C230.264 151.915 224.268 147.37 220.584 140.879C219.893 139.663 219.23 138.344 218.171 137.586C217.993 137.46 217.789 137.348 217.584 137.392C217.342 137.443 217.173 137.697 217.032 137.934C213.63 143.635 212.647 151.167 214.088 157.94C215.526 164.711 219.278 170.67 224.141 174.609C222.101 174.556 219.478 174.165 218.003 172.493C217.266 174.622 217.364 177.136 218.265 179.174C219.165 181.213 220.852 182.739 222.747 183.232C220.854 185.982 219.578 189.466 219.318 193.004C219.057 196.541 219.489 200.107 220.198 203.558C220.727 201.332 221.162 199.21 221.915 197.08C224.054 191.032 226.401 184.979 229.981 179.983C233.089 175.647 237.084 172.212 241.526 170.06C243.817 170.797 246.023 171.552 248.331 172.21C253.008 173.544 257.985 173.376 262.59 171.727C266.147 172.767 269.121 175.788 271.468 179.124C273.816 182.458 275.534 186.339 277.213 190.201C279.752 196.04 282.449 202.292 283.995 208.602Z" fill="#98583A"/>
<path d="M233.519 171.379C233.47 171.379 233.419 171.372 233.365 171.354C227.042 169.368 222.549 162.183 220.362 155.737C220.261 155.44 220.471 155.254 220.693 155.254C220.841 155.254 220.994 155.336 221.065 155.523C222.339 158.905 224.21 161.965 226.538 164.572C228.697 166.992 231.235 168.47 233.769 170.291C234.216 170.612 234.002 171.379 233.519 171.379Z" fill="#763924"/>
<path d="M242.596 167.375C237.356 167.374 232.518 161.783 229.189 157.953C228.927 157.65 229.173 157.255 229.465 157.255C229.549 157.255 229.638 157.289 229.719 157.366C231.854 159.418 233.993 161.493 236.383 163.177C238.562 164.71 240.917 165.414 243.246 166.524C243.645 166.714 243.4 167.34 243.041 167.36C242.892 167.371 242.744 167.375 242.596 167.375Z" fill="#763924"/>
<path d="M248.876 164.396C248.841 164.396 248.805 164.392 248.769 164.382C244.968 163.304 242.856 158.926 240.049 156.226C239.749 155.937 240.033 155.403 240.357 155.403C240.427 155.403 240.499 155.427 240.565 155.484C243.58 158.003 245.791 161.408 249.081 163.56C249.449 163.801 249.252 164.396 248.876 164.396Z" fill="#763924"/>
<path d="M258.969 165.341C258.885 165.341 258.797 165.316 258.71 165.26C253.402 161.769 250.505 154.119 248.297 148.073C248.165 147.714 248.476 147.435 248.769 147.435C248.918 147.435 249.063 147.507 249.142 147.678C250.486 150.611 251.732 153.6 253.291 156.405C254.99 159.46 257.084 161.825 259.347 164.345C259.697 164.735 259.381 165.342 258.969 165.341Z" fill="#763924"/>
<path d="M267.963 169.408C267.923 169.408 267.882 169.398 267.842 169.374C263.966 167.034 260.977 161.158 259.126 156.895C258.968 156.534 259.229 156.214 259.501 156.214C259.622 156.214 259.747 156.28 259.835 156.436C261.209 158.871 262.593 161.27 264.217 163.513C265.538 165.337 267.147 166.947 268.184 168.995C268.285 169.194 268.139 169.408 267.963 169.408Z" fill="#763924"/>
<path d="M291.672 204.801C291.365 208.589 288.526 211.366 285.332 211.002C282.138 210.636 279.798 207.268 280.105 203.48C280.413 199.69 283.252 196.915 286.447 197.279C289.64 197.645 291.98 201.013 291.672 204.801Z" fill="#F9A98C"/>
<path d="M284.051 207.266C283.866 207.266 283.676 207.129 283.635 206.923C283.4 205.736 284.469 204.302 285.091 203.409C285.682 202.561 286.676 201.102 287.675 200.846C287.711 200.837 287.745 200.833 287.778 200.833C288.139 200.833 288.384 201.328 288.096 201.645C287.584 202.213 287.072 202.754 286.603 203.345C286.581 203.291 286.561 203.238 286.54 203.185C286.48 203.033 286.36 202.969 286.235 202.969C285.988 202.969 285.716 203.214 285.82 203.521C285.891 203.729 285.957 203.938 286.018 204.149C285.965 204.23 285.913 204.313 285.861 204.397C285.336 205.256 285.037 206.632 284.253 207.201C284.192 207.247 284.123 207.266 284.051 207.266Z" fill="#F3653F"/>
<path d="M286.906 208.3C286.745 208.3 286.587 208.2 286.541 207.989C286.384 207.249 286.455 206.472 286.352 205.718C286.28 205.183 286.165 204.661 286.016 204.148C286.201 203.866 286.396 203.601 286.6 203.344C287.122 204.707 287.686 206.546 287.3 207.989C287.245 208.193 287.074 208.3 286.906 208.3Z" fill="#F3653F"/>
<path d="M286.014 204.148C285.953 203.938 285.886 203.728 285.816 203.52C285.712 203.214 285.983 202.969 286.231 202.969C286.356 202.969 286.476 203.032 286.536 203.184C286.557 203.237 286.577 203.29 286.598 203.345C286.395 203.601 286.199 203.867 286.014 204.148Z" fill="#E5401F"/>
<path d="M224.735 278.202C224.735 278.202 147.75 212.448 66.043 259.587L78.979 286.492C78.979 286.492 177.086 277.031 195.835 307.263L224.735 278.202Z" fill="#49A77A"/>
<path d="M78.4946 284.865C74.0914 285.614 69.7372 286.738 65.4805 288.226C62.6948 289.198 59.8389 290.34 56.9414 289.982C54.0433 289.625 51.0903 287.216 50.9479 283.904C49.0298 283.127 48.275 279.959 49.5851 278.185C48.186 278.038 47.3889 276.084 47.7186 274.53C48.0487 272.976 49.1358 271.793 50.2173 270.773C55.0854 266.179 60.9194 262.921 67.0902 261.346L78.4946 284.865Z" fill="#F9A98C"/>
<path d="M165.264 171.74C153.107 166.029 138.557 166.696 126.716 172.861C112.348 180.341 107.121 195.547 100.4 210.69C88.7948 236.834 69.2278 256.929 42.6339 259.379C34.2195 260.154 25.8878 260.322 18.6864 265.935C9.45063 273.135 5.20849 285.48 4.81185 297.887C3.6467 334.371 32.1731 361.984 62.0497 367.045C74.0589 369.078 86.6785 367.851 98.3979 364.451C133.177 354.359 159.548 322.318 173.877 285.965C174.677 283.936 175.44 281.888 176.16 279.819C183.352 259.169 186.375 236.608 184.65 214.468C184.304 210.023 183.693 205.635 183.026 201.242C181.669 192.287 179.229 182.816 172.896 176.736C171.741 175.627 170.486 174.66 169.156 173.843C167.892 173.066 166.593 172.364 165.264 171.74Z" fill="#E4A412"/>
<path d="M143.47 176.281C139.298 177.766 135.452 180.267 132.343 183.949C131.644 184.776 130.989 185.653 130.389 186.578C126.514 192.537 125.271 200.136 125.318 207.418L125.319 207.669C125.364 211.861 125.984 216.044 127.15 220.021C128.362 224.15 130.177 228.081 132.706 231.346C136.466 236.2 141.676 239.404 147.139 241.199C153.012 243.126 159.515 243.449 165.327 241.072C170.863 238.809 175.287 233.757 177.892 227.833C180.879 221.043 181.897 213.29 181.479 205.758C181.074 198.46 179.572 190.817 175.443 185.024C170.732 178.415 164.132 175.395 156.834 174.718C152.351 174.303 147.773 174.747 143.47 176.281Z" fill="#F89D79"/>
<path d="M144.713 205.107C144.837 206.361 144.322 207.457 143.565 207.554C142.806 207.65 142.091 206.711 141.968 205.456C141.844 204.201 142.359 203.106 143.118 203.01C143.875 202.912 144.591 203.852 144.713 205.107Z" fill="#100F0D"/>
<path d="M165.152 201.838C165.276 203.093 164.761 204.188 164.002 204.284C163.243 204.381 162.529 203.442 162.405 202.187C162.282 200.932 162.796 199.837 163.555 199.741C164.313 199.644 165.028 200.583 165.152 201.838Z" fill="#100F0D"/>
<path d="M154.926 210.038C154.691 210.038 154.46 209.92 154.341 209.67C153.812 208.553 153.845 207.212 153.706 205.972C153.524 204.361 153.13 202.957 152.702 201.414C152.568 200.931 152.907 200.625 153.258 200.625C153.45 200.625 153.644 200.715 153.77 200.914C154.604 202.227 155.036 203.619 155.276 205.192C155.482 206.55 155.876 208.134 155.603 209.488C155.531 209.844 155.226 210.038 154.926 210.038Z" fill="#F35D38"/>
<path d="M148.307 214.592C151.11 218.438 160.929 217.989 160.732 211.662C160.712 211.01 160.005 210.861 159.686 211.348C158.305 213.445 157.351 214.963 154.823 215.214C152.862 215.409 150.764 214.962 149.204 213.598C148.562 213.038 147.788 213.881 148.307 214.592Z" fill="#100F0D"/>
<path d="M137.923 220.408C137.778 220.408 137.631 220.399 137.482 220.383C134.975 220.108 133.139 217.575 133.381 214.722C133.418 214.276 133.505 213.849 133.634 213.446C134.52 214.179 135.606 214.604 136.755 214.605C137.049 214.605 137.346 214.577 137.644 214.52L142.257 213.625C142.444 214.281 142.518 214.989 142.456 215.717C142.229 218.399 140.245 220.408 137.923 220.408ZM136.751 213.131C135.833 213.131 134.957 212.758 134.263 212.119C135.102 210.842 136.439 210.033 137.913 210.033C138.059 210.033 138.207 210.042 138.356 210.058C139.738 210.208 140.914 211.046 141.653 212.246L137.415 213.067C137.193 213.11 136.972 213.131 136.755 213.131C136.754 213.131 136.752 213.131 136.751 213.131Z" fill="#F35D38"/>
<path d="M170.784 215.548C170.638 215.548 170.49 215.541 170.341 215.525C167.835 215.25 165.999 212.716 166.24 209.865C166.468 207.183 168.452 205.175 170.773 205.175C170.92 205.175 171.066 205.182 171.215 205.198C173.722 205.474 175.558 208.007 175.316 210.859C175.09 213.541 173.104 215.548 170.784 215.548Z" fill="#F35D38"/>
<path d="M147.167 211.926L147.052 211.199L137.416 213.067C137.193 213.11 136.973 213.131 136.756 213.131C134.875 213.132 133.171 211.571 132.841 209.36L131.951 203.41C131.912 203.154 131.893 202.9 131.893 202.65C131.892 200.475 133.283 198.54 135.198 198.174L144.835 196.307C145.057 196.265 145.278 196.244 145.496 196.244C147.376 196.241 149.079 197.803 149.409 200.013L150.3 205.964C150.338 206.221 150.357 206.475 150.357 206.727C150.357 208.9 148.966 210.834 147.052 211.199L147.167 211.926L147.281 212.652C149.871 212.144 151.687 209.59 151.688 206.727C151.688 206.395 151.663 206.059 151.612 205.723L150.723 199.773C150.285 196.859 148.044 194.771 145.496 194.769C145.202 194.769 144.904 194.797 144.604 194.855L134.968 196.722C132.379 197.231 130.564 199.785 130.562 202.65C130.562 202.98 130.586 203.315 130.637 203.651L131.527 209.602C131.967 212.516 134.207 214.603 136.756 214.605C137.05 214.605 137.347 214.577 137.645 214.52L147.281 212.652L147.167 211.926Z" fill="#100F0D"/>
<path d="M173.472 206.828L173.357 206.101L162.241 208.256C162.06 208.291 161.881 208.307 161.704 208.307C160.183 208.31 158.799 207.043 158.531 205.249L157.388 197.614C157.357 197.404 157.343 197.198 157.343 196.994C157.341 195.228 158.473 193.659 160.022 193.364L171.14 191.21C171.319 191.174 171.498 191.158 171.675 191.158C173.196 191.155 174.58 192.422 174.847 194.216L175.99 201.851C176.022 202.059 176.037 202.267 176.037 202.471C176.038 204.237 174.907 205.806 173.357 206.101L173.472 206.828L173.586 207.554C175.81 207.117 177.366 204.926 177.368 202.471C177.368 202.186 177.346 201.899 177.304 201.611L176.16 193.976C175.785 191.476 173.863 189.685 171.675 189.683C171.422 189.683 171.166 189.707 170.91 189.757L159.793 191.911C157.569 192.348 156.012 194.539 156.012 196.994C156.012 197.279 156.032 197.566 156.076 197.854L157.219 205.491C157.594 207.989 159.516 209.779 161.704 209.782C161.957 209.782 162.213 209.758 162.47 209.708L173.586 207.554L173.472 206.828Z" fill="#100F0D"/>
<path d="M150.927 201.213C151.775 200.624 152.58 200.054 153.536 199.686C154.265 199.404 155.541 198.894 156.281 199.313C157.21 199.836 158.032 198.288 157.1 197.761C154.925 196.532 151.675 198.319 150.019 199.91C149.376 200.529 150.211 201.712 150.927 201.213Z" fill="#100F0D"/>
<path d="M124.456 174.609C123.673 176.168 123.086 177.845 122.743 179.636C121.505 186.098 123.025 193.565 125.87 199.233C126.916 199.017 127.961 198.8 129.007 198.583L128.698 182.136L130.706 196.92L148.961 194.037L148.439 180.105L151.136 193.469L166 190.42L165.371 184.542L167.913 190.144L179.994 188.373C180.008 185.508 179.679 179.812 176.679 173.908C175.023 170.649 173.071 168.341 171.544 166.825C169.181 164.951 160.317 158.395 148.036 159.733C139.77 160.631 128.924 165.706 124.456 174.609Z" fill="#E4A412"/>
<path d="M138.728 194.753C138.575 194.753 138.428 194.669 138.346 194.47C135.132 186.564 133.483 175.814 134.489 167.179C134.522 166.893 134.715 166.745 134.906 166.745C135.092 166.745 135.276 166.888 135.301 167.179C135.703 171.942 135.702 176.634 136.452 181.376C137.135 185.683 138.313 189.809 139.267 194.04C139.357 194.432 139.03 194.753 138.728 194.753Z" fill="#CB641D"/>
<path d="M142.307 191.809C142.176 191.809 142.038 191.727 141.982 191.573C139.529 184.775 139.02 176.044 139.255 168.789C139.261 168.559 139.422 168.444 139.582 168.444C139.74 168.444 139.897 168.559 139.899 168.789C139.927 173.053 140.353 177.266 141.006 181.469C141.521 184.79 142.461 188.113 142.585 191.483C142.593 191.704 142.456 191.809 142.307 191.809Z" fill="#CB641D"/>
<path d="M155.564 187.229C155.373 187.229 155.192 187.113 155.146 186.853C154.002 180.168 154.044 171.624 150.335 165.864C150.138 165.558 150.423 165.205 150.701 165.205C150.793 165.205 150.883 165.244 150.957 165.333C152.886 167.752 153.588 170.959 154.308 174.025C155.269 178.112 156.135 182.47 156.075 186.713C156.071 187.038 155.811 187.229 155.564 187.229Z" fill="#CB641D"/>
<path d="M159.345 186.398C159.2 186.398 159.064 186.308 159.029 186.099C157.919 179.453 157.238 173.233 154.841 166.933C154.721 166.616 155.004 166.362 155.267 166.362C155.4 166.362 155.526 166.427 155.591 166.582C158.094 172.502 160.221 179.369 159.764 185.99C159.748 186.239 159.538 186.398 159.345 186.398Z" fill="#CB641D"/>
<path d="M169.332 185.552C169.172 185.552 169.019 185.471 168.945 185.282C167.872 182.569 167.377 179.63 166.291 176.905C165.861 175.823 162.6 168.537 161.224 168.537C161.166 168.537 161.112 168.55 161.061 168.577C161.009 168.604 160.953 168.615 160.899 168.615C160.635 168.615 160.386 168.328 160.563 168.025C160.794 167.627 161.072 167.464 161.377 167.464C162.706 167.464 164.534 170.619 165.005 171.361C167.402 175.124 169.608 180.375 169.864 185.007C169.883 185.331 169.598 185.552 169.332 185.552Z" fill="#CB641D"/>
<path d="M172.85 182.798C172.717 182.798 172.589 182.727 172.515 182.556C170.657 178.249 170.641 171.972 166.448 169.317C165.955 169.005 166.258 168.278 166.723 168.278C166.8 168.278 166.881 168.297 166.963 168.343C169.053 169.477 170.182 171.556 171.132 173.835C172.197 176.389 173.455 179.458 173.329 182.313C173.318 182.59 173.077 182.798 172.85 182.798Z" fill="#CB641D"/>
<path d="M129.12 213.617C128.789 217.536 125.728 220.406 122.283 220.03C118.839 219.652 116.315 216.168 116.646 212.25C116.979 208.331 120.04 205.46 123.485 205.837C126.93 206.215 129.452 209.698 129.12 213.617Z" fill="#F89D79"/>
<path d="M121.799 217.654C121.61 217.654 121.408 217.533 121.353 217.318C120.674 214.662 121.774 210.959 123.324 208.895C123.39 208.808 123.463 208.771 123.533 208.771C123.738 208.771 123.922 209.076 123.826 209.324C123.463 210.271 123.087 211.189 122.804 212.154C122.779 212.148 122.753 212.145 122.728 212.145C122.449 212.145 122.204 212.511 122.353 212.854C122.409 212.984 122.47 213.112 122.534 213.239C122.523 213.293 122.512 213.35 122.502 213.406C122.262 214.711 122.349 216.016 122.173 217.318C122.141 217.551 121.976 217.654 121.799 217.654Z" fill="#F35D38"/>
<path d="M124.952 216.803C124.837 216.803 124.721 216.75 124.626 216.623C124.206 216.059 123.854 215.432 123.482 214.827C123.16 214.305 122.81 213.791 122.527 213.238C122.602 212.868 122.694 212.506 122.798 212.152C122.869 212.17 122.94 212.213 123.007 212.288C123.466 212.807 123.828 213.428 124.208 214.018C124.618 214.652 125.068 215.271 125.422 215.944C125.634 216.345 125.294 216.803 124.952 216.803Z" fill="#F35D38"/>
<path d="M122.535 213.24C122.471 213.113 122.41 212.985 122.354 212.855C122.205 212.511 122.45 212.146 122.729 212.146C122.754 212.146 122.78 212.149 122.805 212.155C122.701 212.508 122.609 212.87 122.535 213.24Z" fill="#E33C20"/>
<path d="M182.25 267.379C182.25 267.379 240.521 266.222 216.892 444.154C216.892 444.154 188.519 441.351 183.252 438.812C183.252 438.812 215.341 287.295 182.25 267.379Z" fill="#EC8D62"/>
<path d="M88.4688 279.691C95.1185 269.717 105.177 263.53 115.999 260.716C125.441 258.263 135.091 258.724 144.713 259.116C154.833 259.531 164.712 261.058 174.115 263.96C199.137 271.68 213.973 300.172 207.829 327.901C199.639 364.871 191.449 401.842 183.257 438.812C164.89 437.642 136.48 432.927 106.699 414.977C95.1118 407.992 85.4821 400.308 77.6592 393.043C74.1065 378.895 69.8858 354.79 73.9147 325.612C76.1239 309.607 79.9733 292.43 88.4688 279.691Z" fill="#E54850"/>
<path d="M111.233 276.218L108.487 274.895L105.97 276.718L106.228 273.337L103.926 271.178L106.833 270.412L107.925 267.254L109.464 270.163L112.441 270.368L110.486 272.933L111.233 276.218Z" fill="#B73943"/>
<path d="M186.194 286.671L183.447 285.349L180.931 287.171L181.189 283.79L178.887 281.631L181.794 280.865L182.886 277.708L184.425 280.615L187.402 280.822L185.446 283.385L186.194 286.671Z" fill="#B73943"/>
<path d="M127.67 378.117L124.923 376.793L122.408 378.617L122.666 375.236L120.363 373.077L123.27 372.31L124.363 369.153L125.902 372.059L128.879 372.267L126.924 374.83L127.67 378.117Z" fill="#B73943"/>
<path d="M181.167 371.545L178.419 370.219L175.904 372.043L176.162 368.663L173.859 366.505L176.766 365.738L177.859 362.581L179.398 365.487L182.375 365.695L180.42 368.258L181.167 371.545Z" fill="#B73943"/>
<path d="M160.207 302.266L158.808 301.591L157.525 302.521L157.657 300.798L156.484 299.698L157.964 299.308L158.522 297.7L159.306 299.18L160.823 299.286L159.826 300.591L160.207 302.266Z" fill="#B73943"/>
<path d="M177.606 343.435L176.207 342.761L174.925 343.69L175.055 341.968L173.883 340.868L175.364 340.477L175.921 338.867L176.705 340.349L178.222 340.457L177.225 341.76L177.606 343.435Z" fill="#B73943"/>
<path d="M96.0118 385.696L94.613 385.021L93.3312 385.951L93.4617 384.227L92.2891 383.127L93.7705 382.738L94.3268 381.129L95.1108 382.61L96.6281 382.716L95.6312 384.022L96.0118 385.696Z" fill="#B73943"/>
<path d="M175.093 422.914L173.694 422.239L172.412 423.168L172.544 421.444L171.371 420.346L172.851 419.956L173.409 418.346L174.191 419.828L175.709 419.933L174.713 421.239L175.093 422.914Z" fill="#B73943"/>
<path d="M107.793 296.522L106.393 295.848L105.111 296.777L105.243 295.055L104.07 293.953L105.552 293.564L106.108 291.955L106.892 293.437L108.409 293.542L107.412 294.848L107.793 296.522Z" fill="#B73943"/>
<path d="M109.127 330.472L106.382 329.148L103.865 330.972L104.123 327.589L101.82 325.43L104.727 324.665L105.82 321.506L107.359 324.416L110.336 324.622L108.381 327.186L109.127 330.472Z" fill="#B73943"/>
<path d="M132.322 289.682L128.752 283.964L122.586 284.068L126.263 278.437L124.271 271.798L130.115 274.038L135.048 269.83L134.983 276.844L140.025 280.883L134.14 282.979L132.322 289.682Z" fill="#B73943"/>
<path d="M160.107 409.735L156.536 404.017L150.371 404.122L154.049 398.49L152.055 391.852L157.899 394.092L162.833 389.883L162.767 396.898L167.808 400.935L161.924 403.032L160.107 409.735Z" fill="#B73943"/>
<path d="M187.58 325.067L184.009 319.348L177.844 319.452L181.521 313.821L179.529 307.182L185.372 309.422L190.306 305.214L190.239 312.228L195.281 316.267L189.398 318.362L187.58 325.067Z" fill="#B73943"/>
<path d="M147.782 348.426L143.302 341.251L135.566 341.382L140.181 334.317L137.68 325.987L145.012 328.795L151.202 323.516L151.12 332.318L157.445 337.386L150.062 340.016L147.782 348.426Z" fill="#B73943"/>
<path d="M136.238 235.089C137.094 236.958 139.083 241.908 138.402 248.381C137.867 253.467 135.939 257.08 134.863 258.811C136.27 261.042 137.676 263.273 139.083 265.504C146.579 277.396 162.581 275.589 167.876 262.251C167.016 260.719 164.735 256.211 165.066 250.013C165.347 244.755 167.361 241.055 168.311 239.517L136.238 235.089Z" fill="#F89D79"/>
<path d="M165.077 252.579C165.077 252.579 165.076 252.579 165.074 252.579C165.074 252.573 165.074 252.569 165.074 252.564C165.074 252.569 165.076 252.575 165.077 252.579ZM165.537 246.473C166.261 243.09 167.591 240.684 168.311 239.519C168.273 239.59 166.504 242.763 165.537 246.473Z" fill="#DE631B"/>
<path d="M165.074 252.579C164.89 252.547 151.425 250.181 141.82 238.935C141.82 238.935 149.143 242.81 157.22 242.81C160.975 242.81 164.892 241.972 168.312 239.517C168.312 239.519 168.311 239.519 168.311 239.519C167.591 240.684 166.261 243.09 165.537 246.473C165.014 248.483 164.725 250.647 165.074 252.564C165.074 252.569 165.074 252.573 165.074 252.579Z" fill="#F35D38"/>
<path d="M104.059 288.741C117.666 318.009 104.416 355.972 119.255 384.527C124.399 394.421 132.74 402.317 142.446 406.474C160.461 414.191 181.68 409.062 199.11 418.256C200.609 419.047 202.146 420.027 202.913 421.637C203.681 423.248 203.276 425.622 201.723 426.242C206.283 428.184 203.357 431.803 201.14 433.107C202.366 432.386 203.578 433.612 203.924 434.939C204.398 436.755 203.059 438.383 201.735 439.174C198.409 441.168 194.48 441.029 190.838 440.712C176.609 439.475 162.276 438.619 148.151 436.212C134.121 433.82 120.198 429.879 107.28 423.097C105.145 421.975 103.041 420.778 100.974 419.504C91.3864 413.595 82.6564 405.075 76.9002 394.451C70.7282 383.057 69.2132 369.457 68.9423 356.33C68.9064 354.597 68.8861 352.865 68.87 351.132C68.6818 330.868 70.9284 307.673 80.419 290.086C83.3419 284.671 88.8629 275.883 95.4845 278.949C99.3444 280.736 102.21 284.767 104.059 288.741Z" fill="#F89D79"/>
<path d="M402.682 205.211C398.199 193.255 395.972 187.266 394.166 184.122C388.113 173.579 377.125 166.95 366.058 167.166C354.562 167.388 344.142 174.314 333.514 179.306C327.754 182.012 320.844 184.079 315.568 180.304C316.52 185.661 321.277 189.783 326.069 189.402C324.124 192.254 322.07 194.438 319.441 196.458C316.798 198.489 313.572 200.077 310.479 199.202C309.833 217.595 317.625 236.345 330.992 246.715C344.359 257.085 362.033 259.542 377.449 253.958C381.645 252.437 385.724 250.335 389.2 247.257C388.206 245.255 387.096 242.825 386.102 240.822C386.931 240.784 387.524 241.669 388.177 242.252C389 242.99 390.053 243.295 391.073 243.581C393.163 244.169 395.261 244.759 397.4 245.036C403.393 245.814 409.615 244.026 414.564 240.105C413.714 239.954 412.767 239.539 412.063 238.979C409.415 236.873 407.161 234.131 405.49 230.985C408.311 233.75 412.415 234.589 415.996 233.418C419.573 232.247 422.583 229.195 424.278 225.423C419.837 224.972 413.326 223.427 408.605 217.795C406.1 214.806 405.237 212.022 402.682 205.211Z" fill="#E54850"/>
<path d="M374.834 241.105C368.753 243.914 361.889 243.641 355.89 240.702C345.289 235.516 340.908 224.141 340.942 212.252C340.943 208.309 341.437 204.307 342.352 200.457C343.235 196.731 344.503 193.149 346.107 189.893C349.373 183.262 354.729 176.203 361.274 173.886C368.966 171.16 378.07 174.153 383.893 180.308C387.393 184.009 390.128 188.644 391.699 193.79C396.841 210.656 389.943 234.115 374.834 241.105Z" fill="#EC8D62"/>
<path d="M372.947 204.591C372.649 206.014 373.105 207.356 373.966 207.589C374.825 207.82 375.763 206.856 376.06 205.433C376.357 204.01 375.902 202.668 375.04 202.436C374.182 202.204 373.244 203.169 372.947 204.591Z" fill="#100F0D"/>
<path d="M350.099 197.596C349.801 199.02 350.257 200.361 351.119 200.594C351.977 200.827 352.915 199.861 353.212 198.439C353.509 197.015 353.054 195.675 352.193 195.442C351.334 195.209 350.396 196.173 350.099 197.596Z" fill="#100F0D"/>
<path d="M360.698 208.509C360.351 208.509 360.008 208.218 359.987 207.755C359.908 206.079 360.586 204.162 361.046 202.563C361.509 200.96 362.184 199.599 363.179 198.321C363.297 198.169 363.433 198.106 363.563 198.106C363.946 198.106 364.293 198.647 364.097 199.107C363.414 200.714 362.799 202.223 362.415 203.955C362.104 205.346 361.957 206.915 361.272 208.142C361.131 208.397 360.913 208.509 360.698 208.509Z" fill="#E0542E"/>
<path d="M366.864 213.67C364.782 215.116 362.139 215.334 359.776 214.652C357.005 213.851 356.036 211.962 354.846 209.339C354.572 208.733 353.854 209.098 353.8 209.653C353.12 216.803 363.896 218.664 367.632 214.774C368.152 214.231 367.476 213.243 366.864 213.67Z" fill="#100F0D"/>
<path d="M379.508 223.311C379.463 223.311 379.417 223.309 379.37 223.308C376.455 223.222 374.153 220.465 374.228 217.148C374.303 213.885 376.649 211.297 379.503 211.297C379.548 211.297 379.595 211.297 379.642 211.299C382.556 211.384 384.858 214.142 384.784 217.458C384.71 220.721 382.361 223.311 379.508 223.311Z" fill="#E25B36"/>
<path d="M342.335 212.467C342.288 212.467 342.242 212.467 342.195 212.466C341.763 212.455 341.342 212.379 340.941 212.252C340.943 208.309 341.437 204.307 342.352 200.457L342.468 200.458C345.383 200.544 347.682 203.297 347.607 206.613C347.532 209.876 345.186 212.467 342.335 212.467Z" fill="#E25B36"/>
<path d="M360.826 170.936C355.569 173.011 351.319 177.397 346.659 180.857C342.267 184.117 337.428 186.596 332.371 188.175C336.975 190.385 341.84 192.072 346.832 192.289C351.825 192.506 356.976 191.154 360.986 187.762C359.855 189.505 358.391 190.966 356.726 192.016C361.255 194.292 366.834 192.447 370.356 188.488C373.143 185.353 377.194 177.613 375.587 172.887C373.842 167.754 364.173 169.615 360.826 170.936Z" fill="#E54850"/>
<path d="M374.996 171.754C374.996 171.754 397.297 177.189 395.471 205.466C395.471 205.466 375.184 202.185 374.996 171.754Z" fill="#E54850"/>
<path d="M312.322 210.084C312.149 210.084 312.136 209.788 312.297 209.734C317.543 207.964 322.688 206.199 327.603 203.436C332.274 200.808 336.256 197.362 340.414 193.883C340.498 193.812 340.584 193.783 340.665 193.783C341.033 193.783 341.32 194.393 341.013 194.743C333.823 202.914 322.592 208.998 312.339 210.083C312.333 210.084 312.327 210.084 312.322 210.084Z" fill="#CF3136"/>
<path d="M318.752 223.131C318.384 223.131 318.146 222.524 318.536 222.331C325.787 218.727 332.022 214.821 337.474 208.25C337.573 208.131 337.685 208.08 337.793 208.08C338.143 208.08 338.45 208.607 338.15 208.999C333.253 215.424 326.36 221.214 318.836 223.12C318.808 223.127 318.778 223.131 318.752 223.131Z" fill="#CF3136"/>
<path d="M328.75 235.464C328.39 235.464 328.199 234.914 328.547 234.684C330.693 233.275 332.817 232.13 334.673 230.218C336.504 228.33 337.943 226.08 339.065 223.613C339.155 223.416 339.298 223.333 339.443 223.333C339.765 223.333 340.099 223.733 339.919 224.166C337.88 229.056 333.793 234.233 328.84 235.454C328.81 235.461 328.779 235.464 328.75 235.464Z" fill="#CF3136"/>
<path d="M402.152 239.829C396.873 239.829 392.329 234.922 390.948 229.569C390.877 229.295 391.087 229.094 391.294 229.094C391.401 229.094 391.508 229.149 391.574 229.276C392.985 231.974 394.082 234.49 396.536 236.265C398.533 237.71 400.809 238.175 402.948 239.225C403.226 239.362 403.054 239.786 402.807 239.804C402.587 239.822 402.369 239.829 402.152 239.829Z" fill="#CF3136"/>
<path d="M415.241 225.711C415.23 225.711 415.221 225.71 415.21 225.71C406.986 225.083 399.989 218.048 396.862 209.936C396.735 209.606 396.989 209.301 397.228 209.301C397.337 209.301 397.443 209.364 397.509 209.518C401.114 217.85 407.462 222.481 415.321 224.805C415.757 224.933 415.687 225.711 415.241 225.711Z" fill="#CF3136"/>
<path d="M402.105 227.758C402.071 227.758 402.038 227.754 402.002 227.747C398.502 226.9 395.544 222.948 394.076 219.545C393.91 219.163 394.2 218.814 394.486 218.814C394.615 218.814 394.744 218.884 394.829 219.055C395.685 220.766 396.733 222.336 398.033 223.665C399.347 225.008 400.872 225.815 402.311 226.936C402.653 227.201 402.489 227.758 402.105 227.758Z" fill="#CF3136"/>
<path d="M253.172 445.439C253.865 409.566 259.899 351.943 290.377 294.383C298.572 278.901 307.393 265.589 316.068 254.24C324.938 251.692 339.271 248.895 356.702 251.313C376.025 253.992 390.49 261.881 398.724 267.28C390.627 290.897 382.548 319.147 376.293 351.555C369.784 385.272 366.716 415.885 365.46 441.959C350.261 443.595 334.275 444.839 253.172 445.439Z" fill="#F3C02D"/>
<path d="M346.637 253.303C341.396 253.501 336.217 255.08 331.372 257.408C325.391 260.282 317.891 265.449 317.891 265.449C319.737 265.732 323.133 266.548 326.535 269.302C328.652 271.016 330.077 272.918 330.982 274.353C329.699 274.929 326.611 276.543 324.182 280.338C321.656 284.288 321.313 288.301 321.25 289.858C326.67 289.377 332.092 288.896 337.512 288.414C341.876 278.515 346.242 268.618 350.608 258.719C351.323 257.097 352.225 255.41 352.747 253.735C350.712 253.358 348.67 253.227 346.637 253.303Z" fill="#E4A412"/>
<path d="M372.5 260.931C375.295 265.981 377.047 271.746 378.069 277.616C379.329 284.86 379.773 294.827 379.773 294.827C378.531 293.243 376.034 290.502 372.122 288.84C369.69 287.807 367.505 287.529 365.954 287.482C366.254 289.013 366.81 292.826 365.408 297.242C363.95 301.836 361.22 304.41 360.122 305.342C357.434 299.965 354.746 294.587 352.059 289.21C356.817 279.549 361.575 269.888 366.332 260.226C367.112 258.644 367.835 256.848 368.761 255.418C370.176 257.124 371.417 258.974 372.5 260.931Z" fill="#E4A412"/>
<path d="M349.853 236.512C350.359 238.059 351.272 241.495 350.644 245.808C349.957 250.519 347.819 253.614 346.864 254.849C344.622 256.025 341.033 258.333 337.874 262.64C333.747 268.267 331.455 276.258 331.533 283.564C331.558 286.012 332.012 288.51 333.181 290.569C335.933 295.419 341.505 296.098 346.104 295.206C351.296 294.199 354.565 291.185 358.459 287.484C363.468 282.724 367.519 276.683 370.16 269.889C372.381 264.174 373.227 258.961 373.557 255.182C373.171 253.836 372.707 251.619 372.93 248.896C373.272 244.698 375.037 241.797 375.87 240.591C372.902 240.69 369.613 240.612 349.853 236.512Z" fill="#EC8D62"/>
<path d="M398.727 267.28C398.727 267.28 430.795 290.733 437.334 324.04C437.334 324.04 403.785 350.264 379.32 336.828C379.32 336.828 385.922 292.403 398.727 267.28Z" fill="#F3C02D"/>
<path d="M386.744 333.9C402.58 337.935 418.37 329.714 431.843 321.228C432.734 320.667 431.948 319.213 431.045 319.715C417.131 327.44 403.141 336.08 386.988 332.923C386.417 332.812 386.162 333.753 386.744 333.9Z" fill="#E4A412"/>
<path d="M427.66 330.377C427.66 330.377 439.762 377.935 423.019 437.135L395.586 440.796C395.586 440.796 416.001 359.127 397.11 340.602C397.11 340.602 417.992 336.713 427.66 330.377Z" fill="#EC8D62"/>
<path d="M350.572 246.255C350.968 243.721 350.998 240.384 349.852 236.513C349.852 236.514 349.852 236.514 349.852 236.514C350.357 238.06 351.271 241.495 350.642 245.809C350.62 245.959 350.597 246.108 350.572 246.255Z" fill="#D9332D"/>
<path d="M373.575 240.585C373.577 240.583 373.579 240.584 373.581 240.582L373.575 240.585ZM349.852 236.514C349.852 236.512 349.852 236.512 349.852 236.512V236.514Z" fill="#E25B36"/>
<path d="M348.934 251.471C348.934 251.471 348.937 251.462 348.947 251.447C348.943 251.455 348.94 251.462 348.936 251.469L348.934 251.471Z" fill="#EF7F15"/>
<path d="M348.938 251.468C348.941 251.461 348.944 251.454 348.948 251.446C349.077 251.215 350.097 249.324 350.577 246.254C350.603 246.107 350.625 245.958 350.648 245.807C351.276 241.494 350.363 238.058 349.857 236.513V236.512C349.857 236.512 355.205 242.406 364.458 242.406C367.175 242.406 370.227 241.898 373.581 240.584L348.938 251.468Z" fill="#E25B36"/>
</svg>
